<svg id="visual" viewBox="0 0 960 540" width="960" height="540" xmlns="http://www.w3.org/2000/svg" xmlns:xlink="http://www.w3.org/1999/xlink" version="1.1"><path d="M604 540L642.3 510C680.7 480 757.3 420 765.3 360C773.3 300 712.7 240 682.3 180C652 120 652 60 652 30L652 0L960 0L960 30C960 60 960 120 960 180C960 240 960 300 960 360C960 420 960 480 960 510L960 540Z" fill="#fe4fa4"></path><path d="M565 540L601.8 510C638.7 480 712.3 420 722 360C731.7 300 677.3 240 651.8 180C626.3 120 629.7 60 631.3 30L633 0L653 0L653 30C653 60 653 120 683.3 180C713.7 240 774.3 300 766.3 360C758.3 420 681.7 480 643.3 510L605 540Z" fill="#eb5bba"></path><path d="M498 540L533.2 510C568.3 480 638.7 420 637.2 360C635.7 300 562.3 240 532 180C501.7 120 514.3 60 520.7 30L527 0L634 0L632.3 30C630.7 60 627.3 120 652.8 180C678.3 240 732.7 300 723 360C713.3 420 639.7 480 602.8 510L566 540Z" fill="#d367cb"></path><path d="M460 540L490.3 510C520.7 480 581.3 420 576.5 360C571.7 300 501.3 240 475.8 180C450.3 120 469.7 60 479.3 30L489 0L528 0L521.7 30C515.3 60 502.7 120 533 180C563.3 240 636.7 300 638.2 360C639.7 420 569.3 480 534.2 510L499 540Z" fill="#b772d8"></path><path d="M431 540L459.8 510C488.7 480 546.3 420 541.5 360C536.7 300 469.3 240 448.5 180C427.7 120 453.3 60 466.2 30L479 0L490 0L480.3 30C470.7 60 451.3 120 476.8 180C502.3 240 572.7 300 577.5 360C582.3 420 521.7 480 491.3 510L461 540Z" fill="#987cdf"></path><path d="M335 540L375 510C415 480 495 420 501.3 360C507.7 300 440.3 240 416.3 180C392.3 120 411.7 60 421.3 30L431 0L480 0L467.2 30C454.3 60 428.7 120 449.5 180C470.3 240 537.7 300 542.5 360C547.3 420 489.7 480 460.8 510L432 540Z" fill="#7783e1"></path><path d="M268 540L308 510C348 480 428 420 432.8 360C437.7 300 367.3 240 346.5 180C325.7 120 354.3 60 368.7 30L383 0L432 0L422.3 30C412.7 60 393.3 120 417.3 180C441.3 240 508.7 300 502.3 360C496 420 416 480 376 510L336 540Z" fill="#5488de"></path><path d="M249 540L281 510C313 480 377 420 380.2 360C383.3 300 325.7 240 304.8 180C284 120 300 60 308 30L316 0L384 0L369.7 30C355.3 60 326.7 120 347.5 180C368.3 240 438.7 300 433.8 360C429 420 349 480 309 510L269 540Z" fill="#2e8cd6"></path><path d="M162 540L160.5 510C159 480 156 420 146.5 360C137 300 121 240 125.7 180C130.3 120 155.7 60 168.3 30L181 0L317 0L309 30C301 60 285 120 305.8 180C326.7 240 384.3 300 381.2 360C378 420 314 480 282 510L250 540Z" fill="#008ecb"></path><path d="M95 540L91.8 510C88.7 480 82.3 420 76 360C69.7 300 63.3 240 69.7 180C76 120 95 60 104.5 30L114 0L182 0L169.3 30C156.7 60 131.3 120 126.7 180C122 240 138 300 147.5 360C157 420 160 480 161.5 510L163 540Z" fill="#008ebe"></path><path d="M47 540L45.3 510C43.7 480 40.3 420 40.3 360C40.3 300 43.7 240 47 180C50.3 120 53.7 60 55.3 30L57 0L115 0L105.5 30C96 60 77 120 70.7 180C64.3 240 70.7 300 77 360C83.3 420 89.7 480 92.8 510L96 540Z" fill="#008eaf"></path><path d="M0 540L0 510C0 480 0 420 0 360C0 300 0 240 0 180C0 120 0 60 0 30L0 0L58 0L56.3 30C54.7 60 51.3 120 48 180C44.7 240 41.3 300 41.3 360C41.3 420 44.7 480 46.3 510L48 540Z" fill="#0c8ca0"></path></svg>